<svg width="41" height="40" viewBox="0 0 41 40" fill="none" xmlns="http://www.w3.org/2000/svg">
<path opacity="0.4" d="M20.3334 28.3333V32.3C20.3334 35.4167 19.0834 36.6667 15.95 36.6667H8.03337C4.9167 36.6667 3.6667 35.4167 3.6667 32.3V24.3833C3.6667 21.25 4.9167 20 8.03337 20H12V23.95C12 27.0833 13.25 28.3333 16.3667 28.3333H20.3334Z" fill="url(#paint0_linear_174_134)"/>
<path opacity="0.6" d="M28.6667 19.9998V23.9498C28.6667 27.0832 27.4167 28.3332 24.2834 28.3332H16.3667C13.25 28.3332 12 27.0832 12 23.9498V16.0332C12 12.9165 13.25 11.6665 16.3667 11.6665H20.3334V15.6165C20.3334 18.7498 21.5834 19.9998 24.7 19.9998H28.6667Z" fill="url(#paint1_linear_174_134)"/>
<path d="M37 7.70016V15.6168C37 18.7502 35.75 20.0002 32.6167 20.0002H24.7C21.5834 20.0002 20.3334 18.7502 20.3334 15.6168V7.70016C20.3334 4.5835 21.5834 3.3335 24.7 3.3335H32.6167C35.75 3.3335 37 4.5835 37 7.70016Z" fill="url(#paint2_linear_174_134)"/>
<defs>
<linearGradient id="paint0_linear_174_134" x1="12" y1="20" x2="12" y2="36.6667" gradientUnits="userSpaceOnUse">
<stop stop-color="#292D32"/>
<stop offset="1" stop-color="#7D8998"/>
</linearGradient>
<linearGradient id="paint1_linear_174_134" x1="20.3334" y1="11.6665" x2="20.3334" y2="28.3332" gradientUnits="userSpaceOnUse">
<stop stop-color="#292D32"/>
<stop offset="1" stop-color="#7D8998"/>
</linearGradient>
<linearGradient id="paint2_linear_174_134" x1="28.6667" y1="3.3335" x2="28.6667" y2="20.0002" gradientUnits="userSpaceOnUse">
<stop stop-color="#292D32"/>
<stop offset="1" stop-color="#7D8998"/>
</linearGradient>
</defs>
</svg>
