<svg width="41" height="40" viewBox="0 0 41 40" fill="none" xmlns="http://www.w3.org/2000/svg">
<path opacity="0.4" d="M35.7344 11.9833L20.6677 20.6999L5.60103 11.9833C6.2677 10.7499 7.23436 9.66659 8.3177 9.06659L17.2177 4.13325C19.1177 3.06659 22.2177 3.06659 24.1177 4.13325L33.0177 9.06659C34.101 9.66659 35.0677 10.7499 35.7344 11.9833Z" fill="url(#paint0_linear_174_68)"/>
<path opacity="0.6" d="M20.6677 20.7001V36.6667C19.4177 36.6667 18.1677 36.4001 17.2177 35.8667L8.3177 30.9334C6.30103 29.8167 4.65103 27.0167 4.65103 24.7167V15.2834C4.65103 14.2167 5.0177 13.0501 5.60103 11.9834L20.6677 20.7001Z" fill="url(#paint1_linear_174_68)"/>
<path d="M36.6844 15.2834V24.7167C36.6844 27.0167 35.0344 29.8167 33.0177 30.9334L24.1177 35.8667C23.1677 36.4001 21.9177 36.6667 20.6677 36.6667V20.7001L35.7344 11.9834C36.3177 13.0501 36.6844 14.2167 36.6844 15.2834Z" fill="url(#paint2_linear_174_68)"/>
<defs>
<linearGradient id="paint0_linear_174_68" x1="20.6677" y1="3.33325" x2="20.6677" y2="20.6999" gradientUnits="userSpaceOnUse">
<stop stop-color="#292D32"/>
<stop offset="1" stop-color="#7D8998"/>
</linearGradient>
<linearGradient id="paint1_linear_174_68" x1="12.6594" y1="11.9834" x2="12.6594" y2="36.6667" gradientUnits="userSpaceOnUse">
<stop stop-color="#292D32"/>
<stop offset="1" stop-color="#7D8998"/>
</linearGradient>
<linearGradient id="paint2_linear_174_68" x1="28.676" y1="11.9834" x2="28.676" y2="36.6667" gradientUnits="userSpaceOnUse">
<stop stop-color="#292D32"/>
<stop offset="1" stop-color="#7D8998"/>
</linearGradient>
</defs>
</svg>
