<svg width="41" height="40" viewBox="0 0 41 40" fill="none" xmlns="http://www.w3.org/2000/svg">
<path d="M36.1667 18.1666V6.83325C36.1667 4.33325 35.1 3.33325 32.45 3.33325H25.7167C23.0667 3.33325 22 4.33325 22 6.83325V18.1666C22 20.6666 23.0667 21.6666 25.7167 21.6666H32.45C35.1 21.6666 36.1667 20.6666 36.1667 18.1666Z" fill="url(#paint0_linear_174_81)"/>
<path d="M18.6667 21.8333V33.1666C18.6667 35.6666 17.6 36.6666 14.95 36.6666H8.21671C5.56671 36.6666 4.50005 35.6666 4.50005 33.1666V21.8333C4.50005 19.3333 5.56671 18.3333 8.21671 18.3333H14.95C17.6 18.3333 18.6667 19.3333 18.6667 21.8333Z" fill="url(#paint1_linear_174_81)"/>
<path opacity="0.4" d="M36.1667 33.1667V28.5C36.1667 26 35.1 25 32.45 25H25.7167C23.0667 25 22 26 22 28.5V33.1667C22 35.6667 23.0667 36.6667 25.7167 36.6667H32.45C35.1 36.6667 36.1667 35.6667 36.1667 33.1667Z" fill="url(#paint2_linear_174_81)"/>
<path opacity="0.4" d="M18.6667 11.4999V6.83325C18.6667 4.33325 17.6 3.33325 14.95 3.33325H8.21671C5.56671 3.33325 4.50005 4.33325 4.50005 6.83325V11.4999C4.50005 13.9999 5.56671 14.9999 8.21671 14.9999H14.95C17.6 14.9999 18.6667 13.9999 18.6667 11.4999Z" fill="url(#paint3_linear_174_81)"/>
<defs>
<linearGradient id="paint0_linear_174_81" x1="29.0834" y1="3.33325" x2="29.0834" y2="21.6666" gradientUnits="userSpaceOnUse">
<stop stop-color="#292D32"/>
<stop offset="1" stop-color="#7D8998"/>
</linearGradient>
<linearGradient id="paint1_linear_174_81" x1="11.5834" y1="18.3333" x2="11.5834" y2="36.6666" gradientUnits="userSpaceOnUse">
<stop stop-color="#292D32"/>
<stop offset="1" stop-color="#7D8998"/>
</linearGradient>
<linearGradient id="paint2_linear_174_81" x1="29.0834" y1="25" x2="29.0834" y2="36.6667" gradientUnits="userSpaceOnUse">
<stop stop-color="#292D32"/>
<stop offset="1" stop-color="#7D8998"/>
</linearGradient>
<linearGradient id="paint3_linear_174_81" x1="11.5834" y1="3.33325" x2="11.5834" y2="14.9999" gradientUnits="userSpaceOnUse">
<stop stop-color="#292D32"/>
<stop offset="1" stop-color="#7D8998"/>
</linearGradient>
</defs>
</svg>
