<svg width="128" height="128" viewBox="0 0 128 128" fill="none" xmlns="http://www.w3.org/2000/svg">
<g filter="url(#filter0_d_14_779)">
<rect x="4" width="120" height="120" rx="60" fill="white" shape-rendering="crispEdges"/>
<path opacity="0.4" d="M92.3333 53.9666H82.7C74.8 53.9666 68.3667 47.5333 68.3667 39.6333V30C68.3667 28.1666 66.8667 26.6666 65.0333 26.6666H50.9C40.6333 26.6666 32.3333 33.3333 32.3333 45.2333V74.7666C32.3333 86.6666 40.6333 93.3333 50.9 93.3333H77.1C87.3667 93.3333 95.6667 86.6666 95.6667 74.7666V57.3C95.6667 55.4666 94.1667 53.9666 92.3333 53.9666Z" fill="url(#paint0_radial_14_779)"/>
<path d="M76.6667 27.3667C75.3 26 72.9333 26.9334 72.9333 28.8334V40.4667C72.9333 45.3333 77.0667 49.3667 82.1 49.3667C85.2667 49.4 89.6667 49.4 93.4333 49.4C95.3333 49.4 96.3333 47.1667 95 45.8333C90.2 41 81.6 32.3 76.6667 27.3667Z" fill="url(#paint1_radial_14_779)"/>
<path d="M69 65.8334H49C47.6333 65.8334 46.5 64.7 46.5 63.3334C46.5 61.9667 47.6333 60.8334 49 60.8334H69C70.3667 60.8334 71.5 61.9667 71.5 63.3334C71.5 64.7 70.3667 65.8334 69 65.8334Z" fill="url(#paint2_radial_14_779)"/>
<path d="M62.3333 79.1666H49C47.6333 79.1666 46.5 78.0333 46.5 76.6666C46.5 75.3 47.6333 74.1666 49 74.1666H62.3333C63.7 74.1666 64.8333 75.3 64.8333 76.6666C64.8333 78.0333 63.7 79.1666 62.3333 79.1666Z" fill="url(#paint3_radial_14_779)"/>
</g>
<defs>
<filter id="filter0_d_14_779" x="0" y="0" width="128" height="128" filterUnits="userSpaceOnUse" color-interpolation-filters="sRGB">
<feFlood flood-opacity="0" result="BackgroundImageFix"/>
<feColorMatrix in="SourceAlpha" type="matrix" values="0 0 0 0 0 0 0 0 0 0 0 0 0 0 0 0 0 0 127 0" result="hardAlpha"/>
<feOffset dy="4"/>
<feGaussianBlur stdDeviation="2"/>
<feComposite in2="hardAlpha" operator="out"/>
<feColorMatrix type="matrix" values="0 0 0 0 0 0 0 0 0 0 0 0 0 0 0 0 0 0 0.25 0"/>
<feBlend mode="normal" in2="BackgroundImageFix" result="effect1_dropShadow_14_779"/>
<feBlend mode="normal" in="SourceGraphic" in2="effect1_dropShadow_14_779" result="shape"/>
</filter>
<radialGradient id="paint0_radial_14_779" cx="0" cy="0" r="1" gradientUnits="userSpaceOnUse" gradientTransform="translate(64 60) rotate(90) scale(33.3333 31.6667)">
<stop stop-color="#459F9E"/>
<stop offset="1" stop-color="#002F7A"/>
</radialGradient>
<radialGradient id="paint1_radial_14_779" cx="0" cy="0" r="1" gradientUnits="userSpaceOnUse" gradientTransform="translate(84.2718 38.0586) rotate(90) scale(11.3414 11.3385)">
<stop stop-color="#459F9E"/>
<stop offset="1" stop-color="#002F7A"/>
</radialGradient>
<radialGradient id="paint2_radial_14_779" cx="0" cy="0" r="1" gradientUnits="userSpaceOnUse" gradientTransform="translate(59 63.3334) rotate(90) scale(2.5 12.5)">
<stop stop-color="#459F9E"/>
<stop offset="1" stop-color="#002F7A"/>
</radialGradient>
<radialGradient id="paint3_radial_14_779" cx="0" cy="0" r="1" gradientUnits="userSpaceOnUse" gradientTransform="translate(55.6667 76.6666) rotate(90) scale(2.5 9.16667)">
<stop stop-color="#459F9E"/>
<stop offset="1" stop-color="#002F7A"/>
</radialGradient>
</defs>
</svg>
