<svg width="128" height="128" viewBox="0 0 128 128" fill="none" xmlns="http://www.w3.org/2000/svg">
<g filter="url(#filter0_d_14_773)">
<rect x="4" width="120" height="120" rx="60" fill="white" shape-rendering="crispEdges"/>
<path opacity="0.4" d="M97.3333 46.0333V66.3333L91.9 61.6666C89.3 59.4333 85.1 59.4333 82.5 61.6666L68.6333 73.5666C66.0333 75.8 61.8333 75.8 59.2333 73.5666L58.1 72.6333C55.7333 70.5666 51.9667 70.3666 49.3 72.1666L32.9 83.1666L32.5333 83.4333C31.3 80.7666 30.6667 77.6 30.6667 73.9666V46.0333C30.6667 33.9 37.9 26.6666 50.0333 26.6666H77.9667C90.1 26.6666 97.3333 33.9 97.3333 46.0333Z" fill="url(#paint0_radial_14_773)"/>
<path d="M54 54.5999C58.3815 54.5999 61.9333 51.0481 61.9333 46.6666C61.9333 42.2852 58.3815 38.7333 54 38.7333C49.6185 38.7333 46.0667 42.2852 46.0667 46.6666C46.0667 51.0481 49.6185 54.5999 54 54.5999Z" fill="url(#paint1_radial_14_773)"/>
<path d="M97.3333 66.3334V73.9667C97.3333 86.1 90.1 93.3334 77.9667 93.3334H50.0333C41.5333 93.3334 35.4 89.7667 32.5333 83.4334L32.9 83.1667L49.3 72.1667C51.9667 70.3667 55.7333 70.5667 58.1 72.6334L59.2333 73.5667C61.8333 75.8 66.0333 75.8 68.6333 73.5667L82.5 61.6667C85.1 59.4334 89.3 59.4334 91.9 61.6667L97.3333 66.3334Z" fill="url(#paint2_radial_14_773)"/>
</g>
<defs>
<filter id="filter0_d_14_773" x="0" y="0" width="128" height="128" filterUnits="userSpaceOnUse" color-interpolation-filters="sRGB">
<feFlood flood-opacity="0" result="BackgroundImageFix"/>
<feColorMatrix in="SourceAlpha" type="matrix" values="0 0 0 0 0 0 0 0 0 0 0 0 0 0 0 0 0 0 127 0" result="hardAlpha"/>
<feOffset dy="4"/>
<feGaussianBlur stdDeviation="2"/>
<feComposite in2="hardAlpha" operator="out"/>
<feColorMatrix type="matrix" values="0 0 0 0 0 0 0 0 0 0 0 0 0 0 0 0 0 0 0.25 0"/>
<feBlend mode="normal" in2="BackgroundImageFix" result="effect1_dropShadow_14_773"/>
<feBlend mode="normal" in="SourceGraphic" in2="effect1_dropShadow_14_773" result="shape"/>
</filter>
<radialGradient id="paint0_radial_14_773" cx="0" cy="0" r="1" gradientUnits="userSpaceOnUse" gradientTransform="translate(64 55.05) rotate(90) scale(28.3833 33.3333)">
<stop stop-color="#459F9E"/>
<stop offset="1" stop-color="#002F7A"/>
</radialGradient>
<radialGradient id="paint1_radial_14_773" cx="0" cy="0" r="1" gradientUnits="userSpaceOnUse" gradientTransform="translate(54 46.6666) rotate(90) scale(7.93333 7.93333)">
<stop stop-color="#459F9E"/>
<stop offset="1" stop-color="#002F7A"/>
</radialGradient>
<radialGradient id="paint2_radial_14_773" cx="0" cy="0" r="1" gradientUnits="userSpaceOnUse" gradientTransform="translate(64.9333 76.6625) rotate(90) scale(16.6708 32.4)">
<stop stop-color="#459F9E"/>
<stop offset="1" stop-color="#002F7A"/>
</radialGradient>
</defs>
</svg>
