<svg width="160" height="38" viewBox="0 0 160 38" fill="none" xmlns="http://www.w3.org/2000/svg">
<path d="M52.8057 22.1129H49.6126V29.1073H45.3551V7.82002H49.6126V19.9842H52.8057L57.5193 13.2939H62.0809L56.7591 20.8965L62.385 29.1073H57.5193L52.8057 22.1129Z" fill="black"/>
<path d="M75.1609 27.5868C76.1544 27.5868 77.0768 27.4145 77.9283 27.0698C78.8001 26.7252 79.6515 26.2386 80.4828 25.6101L81.6992 27.4348C81.314 27.7794 80.8578 28.0937 80.3307 28.3775C79.8239 28.6613 79.2663 28.9046 78.6581 29.1073C78.0702 29.2898 77.4519 29.4317 76.8031 29.5331C76.1543 29.6547 75.5056 29.7155 74.8568 29.7155C73.4174 29.7155 72.0996 29.5229 70.9035 29.1377C69.7276 28.7728 68.7241 28.2356 67.8928 27.526C67.0616 26.7961 66.4129 25.9041 65.9466 24.8499C65.5005 23.7956 65.2775 22.5792 65.2775 21.2006C65.2775 19.8423 65.4904 18.636 65.9162 17.5818C66.3622 16.5073 66.9704 15.6152 67.7408 14.9057C68.5315 14.1758 69.4641 13.6284 70.5386 13.2635C71.6131 12.8783 72.7991 12.6857 74.0966 12.6857C75.313 12.6857 76.4585 12.8682 77.533 13.2331C78.6075 13.598 79.54 14.1353 80.3307 14.8448C81.1214 15.5341 81.7499 16.3755 82.2162 17.3689C82.6825 18.3623 82.9156 19.4875 82.9156 20.7445V22.8732H69.9303C70.1736 24.5559 70.7514 25.7622 71.6637 26.492C72.5963 27.2219 73.7621 27.5868 75.1609 27.5868ZM74.0966 14.6624C73.5086 14.6624 72.9613 14.7739 72.4544 14.9969C71.9476 15.2199 71.5016 15.5747 71.1164 16.0613C70.7514 16.5478 70.4473 17.1763 70.204 17.9467C69.981 18.7171 69.8594 19.6497 69.8391 20.7445H78.354C78.354 19.6902 78.2324 18.7779 77.9891 18.0075C77.7458 17.2371 77.4214 16.6086 77.016 16.1221C76.6308 15.6152 76.1746 15.2503 75.6475 15.0273C75.1407 14.784 74.6237 14.6624 74.0966 14.6624Z" fill="black"/>
<path d="M89.0096 15.4226H86.1206V13.2939H89.0096V8.42823H93.267V13.2939H97.9807V15.4226H93.267V23.3293C93.267 24.0997 93.3481 24.7586 93.5103 25.306C93.6928 25.8331 93.9259 26.269 94.2098 26.6137C94.5139 26.9381 94.8585 27.1813 95.2437 27.3435C95.6289 27.5057 96.0344 27.5868 96.4601 27.5868C97.0683 27.5868 97.6563 27.4956 98.2239 27.3131C98.7916 27.1104 99.268 26.8975 99.6532 26.6745L100.566 28.6512C99.9573 28.9553 99.2579 29.2087 98.4672 29.4114C97.6968 29.6142 96.9264 29.7155 96.156 29.7155C93.8651 29.7155 92.1013 29.1479 90.8646 28.0126C89.6279 26.8772 89.0096 25.3162 89.0096 23.3293V15.4226Z" fill="black"/>
<path d="M116.832 15.4226H113.182C111.804 15.4226 110.749 15.7977 110.02 16.5478C109.29 17.2777 108.925 18.3724 108.925 19.8321V29.1073H104.667V19.8321C104.667 17.7642 105.316 16.1626 106.614 15.0273C107.931 13.8717 109.817 13.2939 112.27 13.2939H116.832V15.4226Z" fill="black"/>
<path d="M128.671 27.7389C129.32 27.7389 129.928 27.6172 130.496 27.3739C131.064 27.1307 131.56 26.7556 131.986 26.2488C132.412 25.7216 132.746 25.0425 132.99 24.2113C133.253 23.38 133.385 22.3765 133.385 21.2006C133.385 20.0247 133.253 19.0212 132.99 18.19C132.746 17.3588 132.412 16.6897 131.986 16.1829C131.56 15.6558 131.064 15.2706 130.496 15.0273C129.928 14.784 129.32 14.6624 128.671 14.6624C128.023 14.6624 127.414 14.784 126.847 15.0273C126.279 15.2706 125.782 15.6558 125.357 16.1829C124.931 16.6897 124.586 17.3588 124.323 18.19C124.079 19.0212 123.958 20.0247 123.958 21.2006C123.958 22.3765 124.079 23.38 124.323 24.2113C124.586 25.0425 124.931 25.7216 125.357 26.2488C125.782 26.7556 126.279 27.1307 126.847 27.3739C127.414 27.6172 128.023 27.7389 128.671 27.7389ZM128.671 12.6857C130.03 12.6857 131.277 12.8783 132.412 13.2635C133.568 13.6284 134.551 14.1758 135.362 14.9057C136.173 15.6152 136.801 16.5073 137.247 17.5818C137.713 18.636 137.947 19.8423 137.947 21.2006C137.947 22.5792 137.713 23.7956 137.247 24.8499C136.801 25.9041 136.173 26.7961 135.362 27.526C134.551 28.2356 133.568 28.7728 132.412 29.1377C131.277 29.5229 130.03 29.7155 128.671 29.7155C127.293 29.7155 126.036 29.5229 124.901 29.1377C123.765 28.7728 122.792 28.2356 121.981 27.526C121.17 26.7961 120.532 25.9041 120.065 24.8499C119.619 23.7956 119.396 22.5792 119.396 21.2006C119.396 19.8423 119.619 18.636 120.065 17.5818C120.532 16.5073 121.17 15.6152 121.981 14.9057C122.792 14.1758 123.765 13.6284 124.901 13.2635C126.036 12.8783 127.293 12.6857 128.671 12.6857Z" fill="black"/>
<path d="M160 29.1073H155.743V19.528C155.743 18.0683 155.378 17.0243 154.648 16.3958C153.918 15.747 152.864 15.4226 151.485 15.4226H147.532V29.1073H143.274V13.2939H151.485C154.384 13.2939 156.523 13.821 157.902 14.8752C159.301 15.9092 160 17.4601 160 19.528V29.1073Z" fill="black"/>
<path d="M0 18.7676C4.35145e-07 13.7901 1.97729 9.01651 5.4969 5.4969C9.0165 1.9773 13.7901 1.72073e-06 18.7676 0C23.7451 -1.72073e-06 28.5187 1.97729 32.0383 5.49689C35.5579 9.01649 37.5352 13.7901 37.5352 18.7676L28.1514 18.7676C28.1514 16.2788 27.1627 13.892 25.4029 12.1322C23.6431 10.3724 21.2563 9.38379 18.7676 9.38379C16.2788 9.3838 13.892 10.3724 12.1322 12.1322C10.3724 13.892 9.38379 16.2789 9.38379 18.7676H0Z" fill="black"/>
<path d="M28.1514 18.7676C28.1514 21.2563 27.1627 23.6431 25.4029 25.4029C23.6431 27.1627 21.2563 28.1514 18.7676 28.1514C16.2789 28.1514 13.892 27.1627 12.1322 25.4029C10.3724 23.6431 9.38379 21.2563 9.38379 18.7676L28.1514 18.7676Z" fill="black"/>
<path fill-rule="evenodd" clip-rule="evenodd" d="M2.51077 28.1514H35.0244C31.7794 33.761 25.7142 37.5352 18.7676 37.5352C11.8209 37.5352 5.75577 33.761 2.51077 28.1514Z" fill="black"/>
</svg>
