<svg width="360" height="301" viewBox="0 0 360 301" fill="none" xmlns="http://www.w3.org/2000/svg">
<path d="M348.667 10.4796C348.667 13.4251 351.054 15.8129 354 15.8129C356.946 15.8129 359.333 13.4251 359.333 10.4796C359.333 7.53409 356.946 5.14628 354 5.14628C351.054 5.14628 348.667 7.53409 348.667 10.4796ZM239.645 107.044L239.055 107.851L239.645 107.044ZM76.6804 53.4884L75.7254 53.1918L76.6804 53.4884ZM-1.54498 308.797L77.6355 53.7849L75.7254 53.1918L-3.45502 308.203L-1.54498 308.797ZM137.905 33.8707L239.055 107.851L240.236 106.237L139.085 32.2564L137.905 33.8707ZM297.407 97.4497L354.833 11.0331L353.167 9.92614L295.741 96.3427L297.407 97.4497ZM239.055 107.851C257.916 121.645 284.474 116.911 297.407 97.4497L295.741 96.3427C283.439 114.855 258.176 119.358 240.236 106.237L239.055 107.851ZM77.6355 53.7849C85.5713 28.2264 116.303 18.0719 137.905 33.8707L139.085 32.2564C116.376 15.6474 84.0682 26.3226 75.7254 53.1918L77.6355 53.7849Z" fill="#2684FF"/>
<path opacity="0.1" d="M78.9922 61.4504L7 302L356 301V17.4796L298.613 104.55C286.003 123.682 259.93 128.331 241.484 114.738L141.043 40.7184C118.758 24.2956 86.9293 34.9299 78.9922 61.4504Z" fill="url(#paint0_linear_124_318)"/>
<defs>
<linearGradient id="paint0_linear_124_318" x1="103.5" y1="47.5" x2="342.5" y2="244" gradientUnits="userSpaceOnUse">
<stop stop-color="#2684FF"/>
<stop offset="1" stop-color="#2684FF" stop-opacity="0"/>
</linearGradient>
</defs>
</svg>
