<svg width="348" height="286" viewBox="0 0 348 286" fill="none" xmlns="http://www.w3.org/2000/svg">
<path d="M221.99 77.8423C226.104 67.5915 237.854 62.3437 248.234 66.1211L328.795 95.4388C339.334 99.2742 344.378 110.917 339.973 121.239L276.056 271.038L159.979 232.341L221.99 77.8423Z" fill="#C7DCFF" fill-opacity="0.31"/>
<path d="M10.0032 131.192C4.64462 121.534 8.29993 109.68 18.1675 104.716L94.2733 66.4331C104.291 61.394 116.823 65.4002 122.047 75.3118L198.258 219.911L91.1824 277.519L10.0032 131.192Z" fill="#C7DCFF" fill-opacity="0.31"/>
<path d="M184.353 53.4129C187.345 42.7802 198.446 36.3744 209.149 39.1051L309.381 64.6786C320.083 67.4093 326.334 78.2426 323.342 88.8753L279.255 245.55C275.066 260.436 259.523 269.404 244.539 265.581L132.68 237.041L184.353 53.4129Z" fill="#E2EDFF"/>
<path d="M28.6395 98.3036C25.0433 87.4641 31.2774 76.0449 42.3309 73.2247L141.647 47.8847C152.35 45.1539 163.452 51.5597 166.444 62.1925L209.996 216.962C214.388 232.572 204.557 248.312 188.583 251.247L85.6569 270.16L28.6395 98.3036Z" fill="#E2EDFF"/>
<path d="M160.738 24.7199C162.628 13.8371 173.005 6.40731 183.916 8.1251L289.951 24.8184C300.863 26.5362 308.176 36.7511 306.287 47.6339L273.941 233.926C269.689 258.412 246.34 275.129 221.79 271.264L120.694 255.348L160.738 24.7199Z" fill="#C7DCFF"/>
<path d="M42.9543 57.7369C40.0587 47.0775 46.4059 36.2948 57.1311 33.6532L161.116 8.04191C171.841 5.40031 182.883 11.9 185.778 22.5595L235.467 205.48C241.982 229.463 227.701 253.724 203.569 259.668L182.118 264.951C139.217 275.518 95.0503 249.519 83.4681 206.881L42.9543 57.7369Z" fill="#C7DCFF"/>
<path d="M77 20C77 8.95431 85.9543 0 97 0H260C271.046 0 280 8.9543 280 20V286H77V20Z" fill="#89B7FF"/>
<path d="M91 29.2244C91 27.4436 92.4451 26 94.2278 26H253.772C255.555 26 257 27.4436 257 29.2244C257 31.0052 255.555 32.4488 253.772 32.4488H94.2278C92.4451 32.4488 91 31.0052 91 29.2244Z" fill="url(#paint0_linear_13_628)"/>
<path d="M91 46.7283C91 44.9476 92.4451 43.5039 94.2278 43.5039H253.772C255.555 43.5039 257 44.9476 257 46.7283C257 48.5091 255.555 49.9528 253.772 49.9528H94.2278C92.4451 49.9528 91 48.5091 91 46.7283Z" fill="url(#paint1_linear_13_628)"/>
<path d="M91 64.2323C91 62.4515 92.4451 61.0079 94.2278 61.0079H253.772C255.555 61.0079 257 62.4515 257 64.2323C257 66.0131 255.555 67.4567 253.772 67.4567H94.2278C92.4451 67.4567 91 66.0131 91 64.2323Z" fill="url(#paint2_linear_13_628)"/>
<path d="M91 81.7362C91 79.9554 92.4451 78.5118 94.2278 78.5118H253.772C255.555 78.5118 257 79.9554 257 81.7362C257 83.517 255.555 84.9606 253.772 84.9606H94.2278C92.4451 84.9606 91 83.517 91 81.7362Z" fill="url(#paint3_linear_13_628)"/>
<path d="M91 99.2402C91 97.4594 92.4451 96.0157 94.2278 96.0157H253.772C255.555 96.0157 257 97.4594 257 99.2402C257 101.021 255.555 102.465 253.772 102.465H94.2278C92.4451 102.465 91 101.021 91 99.2402Z" fill="url(#paint4_linear_13_628)"/>
<path d="M91 116.744C91 114.963 92.4451 113.52 94.2278 113.52H253.772C255.555 113.52 257 114.963 257 116.744C257 118.525 255.555 119.968 253.772 119.968H94.2278C92.4451 119.968 91 118.525 91 116.744Z" fill="url(#paint5_linear_13_628)"/>
<path d="M91 134.248C91 132.467 92.4451 131.024 94.2278 131.024H253.772C255.555 131.024 257 132.467 257 134.248C257 136.029 255.555 137.472 253.772 137.472H94.2278C92.4451 137.472 91 136.029 91 134.248Z" fill="url(#paint6_linear_13_628)"/>
<path d="M91 151.752C91 149.971 92.4451 148.528 94.2278 148.528H253.772C255.555 148.528 257 149.971 257 151.752C257 153.533 255.555 154.976 253.772 154.976H94.2278C92.4451 154.976 91 153.533 91 151.752Z" fill="url(#paint7_linear_13_628)"/>
<path d="M91 169.256C91 167.475 92.4451 166.031 94.2278 166.031H253.772C255.555 166.031 257 167.475 257 169.256C257 171.037 255.555 172.48 253.772 172.48H94.2278C92.4451 172.48 91 171.037 91 169.256Z" fill="url(#paint8_linear_13_628)"/>
<path d="M91 186.76C91 184.979 92.4451 183.535 94.2278 183.535H253.772C255.555 183.535 257 184.979 257 186.76C257 188.541 255.555 189.984 253.772 189.984H94.2278C92.4451 189.984 91 188.541 91 186.76Z" fill="url(#paint9_linear_13_628)"/>
<path d="M91 204.264C91 202.483 92.4451 201.039 94.2278 201.039H253.772C255.555 201.039 257 202.483 257 204.264C257 206.045 255.555 207.488 253.772 207.488H94.2278C92.4451 207.488 91 206.045 91 204.264Z" fill="url(#paint10_linear_13_628)"/>
<path d="M91 221.768C91 219.987 92.4451 218.543 94.2278 218.543H253.772C255.555 218.543 257 219.987 257 221.768C257 223.549 255.555 224.992 253.772 224.992H94.2278C92.4451 224.992 91 223.549 91 221.768Z" fill="url(#paint11_linear_13_628)"/>
<path d="M91 239.272C91 237.491 92.4451 236.047 94.2278 236.047H253.772C255.555 236.047 257 237.491 257 239.272C257 241.052 255.555 242.496 253.772 242.496H94.2278C92.4451 242.496 91 241.052 91 239.272Z" fill="url(#paint12_linear_13_628)"/>
<path d="M91 256.776C91 254.995 92.4451 253.551 94.2278 253.551H253.772C255.555 253.551 257 254.995 257 256.776C257 258.556 255.555 260 253.772 260H94.2278C92.4451 260 91 258.556 91 256.776Z" fill="url(#paint13_linear_13_628)"/>
<defs>
<linearGradient id="paint0_linear_13_628" x1="174" y1="26" x2="174" y2="260" gradientUnits="userSpaceOnUse">
<stop stop-color="white"/>
<stop offset="1" stop-color="white" stop-opacity="0"/>
</linearGradient>
<linearGradient id="paint1_linear_13_628" x1="174" y1="26" x2="174" y2="260" gradientUnits="userSpaceOnUse">
<stop stop-color="white"/>
<stop offset="1" stop-color="white" stop-opacity="0"/>
</linearGradient>
<linearGradient id="paint2_linear_13_628" x1="174" y1="26" x2="174" y2="260" gradientUnits="userSpaceOnUse">
<stop stop-color="white"/>
<stop offset="1" stop-color="white" stop-opacity="0"/>
</linearGradient>
<linearGradient id="paint3_linear_13_628" x1="174" y1="26" x2="174" y2="260" gradientUnits="userSpaceOnUse">
<stop stop-color="white"/>
<stop offset="1" stop-color="white" stop-opacity="0"/>
</linearGradient>
<linearGradient id="paint4_linear_13_628" x1="174" y1="26" x2="174" y2="260" gradientUnits="userSpaceOnUse">
<stop stop-color="white"/>
<stop offset="1" stop-color="white" stop-opacity="0"/>
</linearGradient>
<linearGradient id="paint5_linear_13_628" x1="174" y1="26" x2="174" y2="260" gradientUnits="userSpaceOnUse">
<stop stop-color="white"/>
<stop offset="1" stop-color="white" stop-opacity="0"/>
</linearGradient>
<linearGradient id="paint6_linear_13_628" x1="174" y1="26" x2="174" y2="260" gradientUnits="userSpaceOnUse">
<stop stop-color="white"/>
<stop offset="1" stop-color="white" stop-opacity="0"/>
</linearGradient>
<linearGradient id="paint7_linear_13_628" x1="174" y1="26" x2="174" y2="260" gradientUnits="userSpaceOnUse">
<stop stop-color="white"/>
<stop offset="1" stop-color="white" stop-opacity="0"/>
</linearGradient>
<linearGradient id="paint8_linear_13_628" x1="174" y1="26" x2="174" y2="260" gradientUnits="userSpaceOnUse">
<stop stop-color="white"/>
<stop offset="1" stop-color="white" stop-opacity="0"/>
</linearGradient>
<linearGradient id="paint9_linear_13_628" x1="174" y1="26" x2="174" y2="260" gradientUnits="userSpaceOnUse">
<stop stop-color="white"/>
<stop offset="1" stop-color="white" stop-opacity="0"/>
</linearGradient>
<linearGradient id="paint10_linear_13_628" x1="174" y1="26" x2="174" y2="260" gradientUnits="userSpaceOnUse">
<stop stop-color="white"/>
<stop offset="1" stop-color="white" stop-opacity="0"/>
</linearGradient>
<linearGradient id="paint11_linear_13_628" x1="174" y1="26" x2="174" y2="260" gradientUnits="userSpaceOnUse">
<stop stop-color="white"/>
<stop offset="1" stop-color="white" stop-opacity="0"/>
</linearGradient>
<linearGradient id="paint12_linear_13_628" x1="174" y1="26" x2="174" y2="260" gradientUnits="userSpaceOnUse">
<stop stop-color="white"/>
<stop offset="1" stop-color="white" stop-opacity="0"/>
</linearGradient>
<linearGradient id="paint13_linear_13_628" x1="174" y1="26" x2="174" y2="260" gradientUnits="userSpaceOnUse">
<stop stop-color="white"/>
<stop offset="1" stop-color="white" stop-opacity="0"/>
</linearGradient>
</defs>
</svg>
