<svg width="40" height="40" viewBox="0 0 40 40" fill="none" xmlns="http://www.w3.org/2000/svg">
<path opacity="0.4" d="M20 28.9167C21.5004 28.9167 22.7167 27.7004 22.7167 26.2001C22.7167 24.6997 21.5004 23.4834 20 23.4834C18.4996 23.4834 17.2833 24.6997 17.2833 26.2001C17.2833 27.7004 18.4996 28.9167 20 28.9167Z" fill="url(#paint0_linear_174_88)"/>
<path d="M27.75 15.7334H12.25C5.41665 15.7334 3.33331 17.8167 3.33331 24.6501V27.7501C3.33331 34.5834 5.41665 36.6667 12.25 36.6667H27.75C34.5833 36.6667 36.6666 34.5834 36.6666 27.7501V24.6501C36.6666 17.8167 34.5833 15.7334 27.75 15.7334ZM20 31.2334C17.2166 31.2334 14.9666 28.9667 14.9666 26.2001C14.9666 23.4334 17.2166 21.1667 20 21.1667C22.7833 21.1667 25.0333 23.4334 25.0333 26.2001C25.0333 28.9667 22.7833 31.2334 20 31.2334Z" fill="url(#paint1_linear_174_88)"/>
<path opacity="0.4" d="M11.8667 15.7502V13.8002C11.8667 8.91683 13.25 5.66683 20 5.66683C26.75 5.66683 28.1333 8.91683 28.1333 13.8002V15.7502C28.9833 15.7668 29.75 15.8002 30.4667 15.9002V13.8002C30.4667 9.30016 29.3833 3.3335 20 3.3335C10.6167 3.3335 9.53333 9.30016 9.53333 13.8002V15.8835C10.2333 15.8002 11.0167 15.7502 11.8667 15.7502Z" fill="url(#paint2_linear_174_88)"/>
<defs>
<linearGradient id="paint0_linear_174_88" x1="20" y1="23.4834" x2="20" y2="28.9167" gradientUnits="userSpaceOnUse">
<stop stop-color="#292D32"/>
<stop offset="1" stop-color="#7D8998"/>
</linearGradient>
<linearGradient id="paint1_linear_174_88" x1="20" y1="15.7334" x2="20" y2="36.6667" gradientUnits="userSpaceOnUse">
<stop stop-color="#292D32"/>
<stop offset="1" stop-color="#7D8998"/>
</linearGradient>
<linearGradient id="paint2_linear_174_88" x1="20" y1="3.3335" x2="20" y2="15.9002" gradientUnits="userSpaceOnUse">
<stop stop-color="#292D32"/>
<stop offset="1" stop-color="#7D8998"/>
</linearGradient>
</defs>
</svg>
