<svg width="2456" height="480" viewBox="0 0 2456 480" fill="none" xmlns="http://www.w3.org/2000/svg">
<path d="M0 240C5.56463e-06 176.348 25.2856 115.303 70.2943 70.2944C115.303 25.2857 176.348 2.20047e-05 240 0C303.652 -2.20047e-05 364.697 25.2856 409.706 70.2943C454.714 115.303 480 176.348 480 240L360 240C360 208.174 347.357 177.651 324.853 155.147C302.348 132.643 271.826 120 240 120C208.174 120 177.652 132.643 155.147 155.147C132.643 177.652 120 208.174 120 240H0Z" fill="white"/>
<path d="M360 240C360 271.826 347.357 302.348 324.853 324.853C302.348 347.357 271.826 360 240 360C208.174 360 177.652 347.357 155.147 324.853C132.643 302.348 120 271.826 120 240L360 240Z" fill="white"/>
<path fill-rule="evenodd" clip-rule="evenodd" d="M32.1077 360H447.892C406.395 431.736 328.834 480 240 480C151.166 480 73.6049 431.736 32.1077 360Z" fill="white"/>
<path d="M702.278 282.778H661.444V372.222H607V100H661.444V255.556H702.278L762.556 170H820.889L752.833 267.222L824.778 372.222H762.556L702.278 282.778Z" fill="white"/>
<path d="M1003.71 352.778C1016.42 352.778 1028.21 350.574 1039.1 346.167C1050.25 341.759 1061.14 335.537 1071.77 327.5L1087.32 350.833C1082.4 355.241 1076.56 359.259 1069.82 362.889C1063.34 366.518 1056.21 369.63 1048.43 372.222C1040.92 374.556 1033.01 376.37 1024.71 377.667C1016.42 379.222 1008.12 380 999.823 380C981.416 380 964.564 377.537 949.268 372.611C934.231 367.944 921.397 361.074 910.768 352C900.138 342.667 891.842 331.259 885.879 317.778C880.175 304.296 877.323 288.741 877.323 271.111C877.323 253.741 880.046 238.315 885.49 224.833C891.194 211.093 898.971 199.685 908.823 190.611C918.934 181.278 930.86 174.278 944.601 169.611C958.342 164.685 973.509 162.222 990.101 162.222C1005.66 162.222 1020.3 164.556 1034.05 169.222C1047.79 173.889 1059.71 180.759 1069.82 189.833C1079.93 198.648 1087.97 209.407 1093.93 222.111C1099.9 234.815 1102.88 249.204 1102.88 265.278V292.5H936.823C939.934 314.019 947.323 329.444 958.99 338.778C970.916 348.111 985.823 352.778 1003.71 352.778ZM990.101 187.5C982.583 187.5 975.583 188.926 969.101 191.778C962.62 194.63 956.916 199.167 951.99 205.389C947.323 211.611 943.434 219.648 940.323 229.5C937.471 239.352 935.916 251.278 935.657 265.278H1044.55C1044.55 251.796 1042.99 240.13 1039.88 230.278C1036.77 220.426 1032.62 212.389 1027.43 206.167C1022.51 199.685 1016.68 195.019 1009.93 192.167C1003.45 189.056 996.842 187.5 990.101 187.5Z" fill="white"/>
<path d="M1400.35 372.222H1345.9V249.722C1345.9 231.056 1341.24 217.704 1331.9 209.667C1322.57 201.37 1309.09 197.222 1291.46 197.222H1240.9V372.222H1186.46V170H1291.46C1328.53 170 1355.89 176.741 1373.52 190.222C1391.4 203.444 1400.35 223.278 1400.35 249.722V372.222Z" fill="white"/>
<path d="M1501.47 197.222H1464.53V170H1501.47V107.778H1555.92V170H1616.2V197.222H1555.92V298.333C1555.92 308.185 1556.96 316.611 1559.03 323.611C1561.36 330.352 1564.35 335.926 1567.97 340.333C1571.86 344.481 1576.27 347.593 1581.2 349.667C1586.12 351.741 1591.31 352.778 1596.75 352.778C1604.53 352.778 1612.05 351.611 1619.31 349.278C1626.57 346.685 1632.66 343.963 1637.59 341.111L1649.25 366.389C1641.47 370.278 1632.53 373.519 1622.42 376.111C1612.57 378.704 1602.72 380 1592.86 380C1563.57 380 1541.01 372.741 1525.2 358.222C1509.38 343.704 1501.47 323.741 1501.47 298.333V197.222Z" fill="white"/>
<path d="M1872.82 197.222H1826.15C1808.52 197.222 1795.04 202.019 1785.71 211.611C1776.37 220.944 1771.71 234.944 1771.71 253.611V372.222H1717.26V253.611C1717.26 227.167 1725.56 206.685 1742.15 192.167C1759 177.389 1783.11 170 1814.48 170H1872.82V197.222Z" fill="white"/>
<path d="M2039.78 354.722C2048.08 354.722 2055.86 353.167 2063.12 350.056C2070.37 346.944 2076.73 342.148 2082.17 335.667C2087.62 328.926 2091.89 320.241 2095 309.611C2098.37 298.981 2100.06 286.148 2100.06 271.111C2100.06 256.074 2098.37 243.241 2095 232.611C2091.89 221.981 2087.62 213.426 2082.17 206.944C2076.73 200.204 2070.37 195.278 2063.12 192.167C2055.86 189.056 2048.08 187.5 2039.78 187.5C2031.49 187.5 2023.71 189.056 2016.45 192.167C2009.19 195.278 2002.84 200.204 1997.39 206.944C1991.95 213.426 1987.54 221.981 1984.17 232.611C1981.06 243.241 1979.5 256.074 1979.5 271.111C1979.5 286.148 1981.06 298.981 1984.17 309.611C1987.54 320.241 1991.95 328.926 1997.39 335.667C2002.84 342.148 2009.19 346.944 2016.45 350.056C2023.71 353.167 2031.49 354.722 2039.78 354.722ZM2039.78 162.222C2057.15 162.222 2073.1 164.685 2087.62 169.611C2102.39 174.278 2114.97 181.278 2125.34 190.611C2135.71 199.685 2143.74 211.093 2149.45 224.833C2155.41 238.315 2158.39 253.741 2158.39 271.111C2158.39 288.741 2155.41 304.296 2149.45 317.778C2143.74 331.259 2135.71 342.667 2125.34 352C2114.97 361.074 2102.39 367.944 2087.62 372.611C2073.1 377.537 2057.15 380 2039.78 380C2022.15 380 2006.08 377.537 1991.56 372.611C1977.04 367.944 1964.6 361.074 1954.23 352C1943.86 342.667 1935.69 331.259 1929.73 317.778C1924.02 304.296 1921.17 288.741 1921.17 271.111C1921.17 253.741 1924.02 238.315 1929.73 224.833C1935.69 211.093 1943.86 199.685 1954.23 190.611C1964.6 181.278 1977.04 174.278 1991.56 169.611C2006.08 164.685 2022.15 162.222 2039.78 162.222Z" fill="white"/>
<path d="M2455.97 372.222H2401.52V249.722C2401.52 231.056 2396.86 217.704 2387.52 209.667C2378.19 201.37 2364.71 197.222 2347.08 197.222H2296.52V372.222H2242.08V170H2347.08C2384.15 170 2411.51 176.741 2429.14 190.222C2447.02 203.444 2455.97 223.278 2455.97 249.722V372.222Z" fill="white"/>
</svg>