<svg width="326" height="313" viewBox="0 0 326 313" fill="none" xmlns="http://www.w3.org/2000/svg">
<path d="M26 60C26 48.9543 34.9543 40 46 40H306C317.046 40 326 48.9543 326 60V313H26V60Z" fill="#2684FF" fill-opacity="0.1"/>
<g filter="url(#filter0_d_36_850)">
<rect x="9" y="9" width="80" height="80" rx="20" fill="white" shape-rendering="crispEdges"/>
<rect x="7.5" y="7.5" width="83" height="83" rx="21.5" stroke="#2684FF" stroke-opacity="0.2" stroke-width="3" shape-rendering="crispEdges"/>
<path opacity="0.4" d="M49 32.3333C44.6333 32.3333 41.0833 35.8833 41.0833 40.2499C41.0833 44.5333 44.4333 47.9999 48.8 48.1499C48.9333 48.1333 49.0667 48.1333 49.1667 48.1499C49.2 48.1499 49.2167 48.1499 49.25 48.1499C49.2667 48.1499 49.2667 48.1499 49.2833 48.1499C53.55 47.9999 56.9 44.5333 56.9167 40.2499C56.9167 35.8833 53.3667 32.3333 49 32.3333Z" fill="url(#paint0_radial_36_850)"/>
<path d="M57.4667 52.5833C52.8167 49.4833 45.2333 49.4833 40.55 52.5833C38.4333 54 37.2667 55.9166 37.2667 57.9666C37.2667 60.0166 38.4333 61.9166 40.5333 63.3166C42.8667 64.8833 45.9333 65.6666 49 65.6666C52.0667 65.6666 55.1333 64.8833 57.4667 63.3166C59.5667 61.9 60.7333 60 60.7333 57.9333C60.7167 55.8833 59.5667 53.9833 57.4667 52.5833Z" fill="url(#paint1_radial_36_850)"/>
</g>
<rect x="45" y="99" width="44" height="44" rx="10" fill="white"/>
<path d="M77 119V124C77 129 75 131 70 131H64C59 131 57 129 57 124V118C57 113 59 111 64 111H69" stroke="#292D32" stroke-width="1.5" stroke-linecap="round" stroke-linejoin="round"/>
<path d="M77 119H73C70 119 69 118 69 115V111L77 119Z" stroke="#292D32" stroke-width="1.5" stroke-linecap="round" stroke-linejoin="round"/>
<path d="M62 122H68" stroke="#292D32" stroke-width="1.5" stroke-linecap="round" stroke-linejoin="round"/>
<path d="M62 126H66" stroke="#292D32" stroke-width="1.5" stroke-linecap="round" stroke-linejoin="round"/>
<rect x="101" y="108" width="193" height="9" rx="4.5" fill="white"/>
<rect x="101" y="124" width="104" height="9" rx="4.5" fill="white"/>
<rect x="101" y="153" width="193" height="4" rx="2" fill="white"/>
<rect x="101" y="163" width="193" height="4" rx="2" fill="white"/>
<rect x="101" y="173" width="45" height="4" rx="2" fill="#2684FF" fill-opacity="0.4"/>
<rect x="160" y="173" width="75" height="4" rx="2" fill="#2684FF" fill-opacity="0.4"/>
<rect x="249" y="173" width="45" height="4" rx="2" fill="#2684FF" fill-opacity="0.4"/>
<rect x="101" y="183" width="193" height="4" rx="2" fill="white"/>
<rect x="101" y="193" width="193" height="4" rx="2" fill="white"/>
<rect x="101" y="203" width="193" height="4" rx="2" fill="white"/>
<rect x="101" y="213" width="193" height="4" rx="2" fill="white"/>
<rect x="101" y="223" width="193" height="4" rx="2" fill="white"/>
<rect x="101" y="233" width="193" height="4" rx="2" fill="white"/>
<rect x="101" y="243" width="89.5" height="4" rx="2" fill="#2684FF" fill-opacity="0.4"/>
<rect x="204.5" y="243" width="89.5" height="4" rx="2" fill="#2684FF" fill-opacity="0.4"/>
<rect x="101" y="253" width="193" height="4" rx="2" fill="white"/>
<rect x="101" y="263" width="193" height="4" rx="2" fill="white"/>
<rect x="101" y="273" width="193" height="4" rx="2" fill="white"/>
<rect x="101" y="283" width="91" height="4" rx="2" fill="white"/>
<defs>
<filter id="filter0_d_36_850" x="0" y="0" width="92" height="92" filterUnits="userSpaceOnUse" color-interpolation-filters="sRGB">
<feFlood flood-opacity="0" result="BackgroundImageFix"/>
<feColorMatrix in="SourceAlpha" type="matrix" values="0 0 0 0 0 0 0 0 0 0 0 0 0 0 0 0 0 0 127 0" result="hardAlpha"/>
<feOffset dx="-6" dy="-6"/>
<feComposite in2="hardAlpha" operator="out"/>
<feColorMatrix type="matrix" values="0 0 0 0 0.14902 0 0 0 0 0.517647 0 0 0 0 1 0 0 0 0.2 0"/>
<feBlend mode="normal" in2="BackgroundImageFix" result="effect1_dropShadow_36_850"/>
<feBlend mode="normal" in="SourceGraphic" in2="effect1_dropShadow_36_850" result="shape"/>
</filter>
<radialGradient id="paint0_radial_36_850" cx="0" cy="0" r="1" gradientUnits="userSpaceOnUse" gradientTransform="translate(49 40.2416) rotate(90) scale(7.90833 7.91667)">
<stop stop-color="#459F9E"/>
<stop offset="1" stop-color="#174F99"/>
</radialGradient>
<radialGradient id="paint1_radial_36_850" cx="0" cy="0" r="1" gradientUnits="userSpaceOnUse" gradientTransform="translate(49 57.9625) rotate(90) scale(7.70417 11.7333)">
<stop stop-color="#459F9E"/>
<stop offset="1" stop-color="#174F99"/>
</radialGradient>
</defs>
</svg>
