<svg width="41" height="40" viewBox="0 0 41 40" fill="none" xmlns="http://www.w3.org/2000/svg">
<path opacity="0.4" d="M17.2667 3.5168L8.09999 6.95013C6.34999 7.6168 4.91666 9.68347 4.91666 11.5668V25.0668C4.91666 26.4168 5.79999 28.2001 6.88332 29.0001L16.05 35.8501C17.6667 37.0668 20.3167 37.0668 21.9333 35.8501L31.1 29.0001C32.1833 28.1835 33.0667 26.4168 33.0667 25.0668V11.5668C33.0667 9.70013 31.6333 7.6168 29.8833 6.9668L20.7167 3.53347C19.7833 3.1668 18.2167 3.1668 17.2667 3.5168Z" fill="url(#paint0_linear_174_98)"/>
<path d="M27.3333 19.1831C23.2 19.1831 19.8333 22.5498 19.8333 26.6831C19.8333 30.8164 23.2 34.1831 27.3333 34.1831C31.4667 34.1831 34.8333 30.8164 34.8333 26.6831C34.8333 22.5331 31.4667 19.1831 27.3333 19.1831Z" fill="url(#paint1_linear_174_98)"/>
<path d="M35.6667 36.6668C35.2167 36.6668 34.8 36.4835 34.4833 36.1835C34.4167 36.1002 34.3333 36.0168 34.2833 35.9168C34.2167 35.8335 34.1667 35.7335 34.1333 35.6335C34.0833 35.5335 34.05 35.4335 34.0333 35.3335C34.0167 35.2168 34 35.1168 34 35.0002C34 34.7835 34.05 34.5668 34.1333 34.3668C34.2167 34.1502 34.3333 33.9835 34.4833 33.8168C34.8667 33.4335 35.45 33.2502 35.9833 33.3668C36.1 33.3835 36.2 33.4168 36.3 33.4668C36.4 33.5002 36.5 33.5502 36.5833 33.6168C36.6833 33.6668 36.7667 33.7502 36.85 33.8168C37 33.9835 37.1167 34.1502 37.2 34.3668C37.2833 34.5668 37.3333 34.7835 37.3333 35.0002C37.3333 35.4335 37.15 35.8668 36.85 36.1835C36.7667 36.2502 36.6833 36.3168 36.5833 36.3835C36.5 36.4502 36.4 36.5002 36.3 36.5335C36.2 36.5835 36.1 36.6168 35.9833 36.6335C35.8833 36.6502 35.7667 36.6668 35.6667 36.6668Z" fill="url(#paint2_linear_174_98)"/>
<defs>
<linearGradient id="paint0_linear_174_98" x1="18.9917" y1="3.25635" x2="18.9917" y2="36.7626" gradientUnits="userSpaceOnUse">
<stop stop-color="#292D32"/>
<stop offset="1" stop-color="#7D8998"/>
</linearGradient>
<linearGradient id="paint1_linear_174_98" x1="27.3333" y1="19.1831" x2="27.3333" y2="34.1831" gradientUnits="userSpaceOnUse">
<stop stop-color="#292D32"/>
<stop offset="1" stop-color="#7D8998"/>
</linearGradient>
<linearGradient id="paint2_linear_174_98" x1="35.6667" y1="33.332" x2="35.6667" y2="36.6668" gradientUnits="userSpaceOnUse">
<stop stop-color="#292D32"/>
<stop offset="1" stop-color="#7D8998"/>
</linearGradient>
</defs>
</svg>
